<svg xmlns="http://www.w3.org/2000/svg" viewBox="0 0 880 184" width="880" height="184" role="img" aria-label="Language distribution across public source repositories">
  <style>
    text { font-family: "JetBrains Mono", ui-monospace, "SFMono-Regular", Menlo, Consolas, monospace; }
    .fig   { fill: #ff3d00; font-size: 12px; letter-spacing: 3px; }
    .cap   { fill: #8c8c88; font-size: 12px; letter-spacing: 2px; }
    .dim   { fill: #5a5a57; font-size: 11px; letter-spacing: 2px; }
    .lname { fill: #8c8c88; font-size: 11px; letter-spacing: 1.5px; }
    .lval  { fill: #f4f4f0; font-size: 11px; letter-spacing: 1px; }
  </style>
  <rect x="0" y="0" width="880" height="184" fill="#0e0e0e"/>
  <rect x="0.5" y="0.5" width="879" height="183" fill="none" stroke="#2a2a2a" stroke-width="1"/>

  <text x="32" y="36" class="fig">FIG. 02</text>
  <text x="112" y="36" class="cap">— LANGUAGE DISTRIBUTION · PUBLIC SRC</text>
  <text x="848" y="36" class="dim" text-anchor="end">4 REPOS</text>

  <rect x="32.0" y="58" width="341.4" height="12" fill="#ff3d00"/>
  <rect x="375.4" y="58" width="196.2" height="12" fill="#f4f4f0"/>
  <rect x="573.7" y="58" width="113.3" height="12" fill="#8c8c88"/>
  <rect x="688.9" y="58" width="95.5" height="12" fill="#5a5a57"/>
  <rect x="786.4" y="58" width="27.8" height="12" fill="#3a3a3a"/>
  <rect x="816.2" y="58" width="31.8" height="12" fill="#2a2a2a"/>

  <rect x="32" y="94" width="8" height="8" fill="#ff3d00"/>
  <text x="50" y="102" class="lname">GO</text>
  <text x="172" y="102" class="lval">42.4%</text>
  <rect x="304" y="94" width="8" height="8" fill="#f4f4f0"/>
  <text x="322" y="102" class="lname">TYPESCRIPT</text>
  <text x="444" y="102" class="lval">24.3%</text>
  <rect x="576" y="94" width="8" height="8" fill="#8c8c88"/>
  <text x="594" y="102" class="lname">RUST</text>
  <text x="716" y="102" class="lval">14.1%</text>
  <rect x="32" y="118" width="8" height="8" fill="#5a5a57"/>
  <text x="50" y="126" class="lname">PYTHON</text>
  <text x="172" y="126" class="lval">11.8%</text>
  <rect x="304" y="118" width="8" height="8" fill="#3a3a3a"/>
  <text x="322" y="126" class="lname">CSS</text>
  <text x="444" y="126" class="lval">3.4%</text>
  <rect x="576" y="118" width="8" height="8" fill="#2a2a2a"/>
  <text x="594" y="126" class="lname">OTHER</text>
  <text x="716" y="126" class="lval">3.9%</text>

  <line x1="32" y1="136" x2="848" y2="136" stroke="#2a2a2a" stroke-width="1"/>
  <text x="32" y="156" class="dim">CONTRIBUTIONS · 365D — 1887</text>
  <text x="848" y="156" class="dim" text-anchor="end">PLOTTED 2026-07-22</text>
</svg>
